<svg xmlns="http://www.w3.org/2000/svg" viewBox="0 0 241 241"><defs><style>.cls-1{fill:#f2f2f2;}.cls-2{fill:#861b20;}.cls-3{fill:#4d4d4d;}</style></defs><title>资源 2</title><g id="图层_2" data-name="图层 2"><g id="AppIcon"><path class="cls-1" d="M241,120.5c-1.3,49.37,1,86.58-17.13,103.37C207.08,242,169.87,239.7,120.5,241c-49.37-1.3-86.58,1-103.37-17.13C-1,207.08,1.3,169.87,0,120.5,1.3,71.13-1,33.92,17.13,17.13,33.92-1,71.13,1.3,120.5,0c49.37,1.3,86.58-1,103.37,17.13C242,33.92,239.7,71.13,241,120.5Z"/><circle class="cls-2" cx="174.69" cy="59.52" r="14.26"/><path class="cls-3" d="M123.76,45.26H66a14.07,14.07,0,0,0-13,8A14.35,14.35,0,0,0,65.89,73.78h34.27a7.3,7.3,0,0,1,7.3,7.3V193.54a14.27,14.27,0,1,0,28.52,0V59.48A14.28,14.28,0,0,0,122.1,45.26"/></g></g></svg>